#!OML:ASF F:\twosubjects\two\wednesday\Session 1\rory1.ASF
:FULLY-SPECIFIED
:DEGREES
354
root 8.49274 17.4885 -19.8298 3.53161 3.76188 0.221447
lowerback 8.9865 0.530888 -3.50593
upperback 3.09317 0.407326 0.120021
thorax -1.85313 0.195353 2.05301
lowerneck -11.444 0.873948 -0.635037
upperneck 5.59384 1.4454 -2.11343
head 3.89867 0.59538 -0.49263
rclavicle 1.10822e-014 -3.97569e-016
rhumerus -29.6514 -0.0417095 -78.2471
rradius 42.211
rwrist -3.16066
rhand -23.6982 42.0962
rfingers 7.12502
rthumb 2.76881 12.1344
lclavicle 1.10822e-014 -3.97569e-016
lhumerus -27.2302 3.67915 80.1373
lradius 38.0517
lwrist 9.77589
lhand -26.4081 16.0086
lfingers 7.12502
lthumb 0.151623 45.9883
rfemur -33.0175 4.90663 12.087
rtibia 43.5824
rfoot -13.3891 -1.61275
rtoes -2.08584
lfemur -14.9945 1.94402 -11.881
ltibia 36.6746
lfoot -23.0099 11.2894
ltoes -26.0614
355
root 8.46195 17.495 -19.8807 3.45724 3.75439 0.213307
lowerback 8.98312 0.51037 -3.6705
upperback 3.10698 0.370208 0.278406
thorax -1.83606 0.175442 2.31364
lowerneck -12.1074 0.925691 -1.40329
upperneck 6.57751 1.62338 -1.61669
head 4.37449 0.673717 -0.171938
rclavicle 3.52843e-015 3.27995e-015
rhumerus -29.4917 0.457887 -78.1066
rradius 42.087
rwrist -3.10843
rhand -23.0756 42.0693
rfingers 7.12502
rthumb 3.3701 12.1162
lclavicle 3.52843e-015 3.27995e-015
lhumerus -27.6566 4.20587 80.1229
lradius 38.2811
lwrist 9.76171
lhand -26.4168 15.9893
lfingers 7.12502
lthumb 0.143216 45.969
rfemur -32.6863 4.83191 11.7951
rtibia 43.8
rfoot -13.7453 -2.30207
rtoes 0.881783
lfemur -15.0074 1.90099 -11.7675
ltibia 36.5094
lfoot -22.8838 11.2279
ltoes -25.4736
356
root 8.43152 17.5052 -19.9308 3.28023 3.77126 0.390156
lowerback 9.14527 0.550805 -3.84738
upperback 3.09107 0.40055 0.251084
thorax -1.94447 0.19251 2.38116
lowerneck -12.323 0.965596 -1.72427
upperneck 7.63353 1.72667 -1.368
head 4.28807 0.715435 -0.0197427
rclavicle -7.35503e-015 1.2424e-014
rhumerus -29.5916 0.992512 -78.1312
rradius 42.1272
rwrist -3.78253
rhand -23.0871 42.5993
rfingers 7.12502
rthumb 3.35897 12.646
lclavicle -7.35503e-015 1.2424e-014
lhumerus -27.88 4.53934 80.0452
lradius 38.3017
lwrist 9.44664
lhand -25.638 16.5147
lfingers 7.12502
lthumb 0.895368 46.4925
rfemur -32.2112 4.79193 11.274
rtibia 44.0405
rfoot -14.1544 -3.4925
rtoes 1.08221
lfemur -14.9105 1.70473 -11.8821
ltibia 36.4126
lfoot -22.7543 11.3317
ltoes -25.3201
357
root 8.39503 17.5133 -19.9789 3.12894 3.75967 0.44108
lowerback 9.22165 0.696289 -3.88591
upperback 2.99041 0.582457 0.175648
thorax -2.10324 0.287651 2.30416
lowerneck -11.3246 0.962188 -1.31407
upperneck 6.9245 1.64797 -1.60901
head 4.34189 0.68889 -0.187414
rclavicle -5.06901e-015 -1.33186e-014
rhumerus -30.013 0.902078 -78.0178
rradius 42.5473
rwrist -2.7243
rhand -23.793 42.8396
rfingers 7.12502
rthumb 2.67726 12.8767
lclavicle -5.06901e-015 -1.33186e-014
lhumerus -28.2383 4.31399 80.0371
lradius 38.351
lwrist 9.7044
lhand -25.8503 16.8125
lfingers 7.12502
lthumb 0.690358 46.7911
rfemur -31.7412 4.844 10.9347
rtibia 44.3131
rfoot -14.7141 -5.23643
rtoes -1.07717
lfemur -14.9095 1.56115 -11.8267
ltibia 36.4133
lfoot -22.6663 11.362
ltoes -24.9517
358
root 8.35325 17.5042 -20.0296 3.13269 3.83235 0.176004
lowerback 9.15563 1.04503 -3.49549
upperback 2.76728 1.074 0.0307488
thorax -2.32317 0.539207 1.8789
lowerneck -9.4544 0.642936 -0.0166971
upperneck 5.70322 1.05313 -2.38891
head 3.54811 0.414869 -0.722806
rclavicle 7.95139e-016 -1.37161e-014
rhumerus -30.7303 -0.119245 -77.9086
rradius 42.7553
rwrist -1.9171
rhand -23.8233 44.0732
rfingers 7.12502
rthumb 2.648 14.1099
lclavicle 7.95139e-016 -1.37161e-014
lhumerus -28.8161 2.88709 80.0498
lradius 38.7894
lwrist 10.262
lhand -26.2445 17.1175
lfingers 7.12502
lthumb 0.309623 47.097
rfemur -31.3663 4.81132 10.9647
rtibia 44.6347
rfoot -15.3683 -6.8261
rtoes -2.13241
lfemur -15.1608 1.42821 -11.3804
ltibia 36.4069
lfoot -22.4651 11.3996
ltoes -24.7311
359
root 8.30862 17.4951 -20.0793 3.30556 4.01512 0.053209
lowerback 9.00201 0.785831 -3.50399
upperback 2.79831 0.741628 0.211083
thorax -2.18888 0.3711 2.1092
lowerneck -9.95022 0.805464 -0.571621
upperneck 5.81485 1.33439 -2.17931
head 3.68102 0.546004 -0.537166
rclavicle -3.75206e-015 -3.8763e-015
rhumerus -30.0795 0.601994 -77.9883
rradius 42.5008
rwrist -1.61232
rhand -23.5204 46.1888
rfingers 7.12502
rthumb 2.9405 16.2293
lclavicle -3.75206e-015 -3.8763e-015
lhumerus -29.124 3.72359 79.882
lradius 39.2623
lwrist 10.6252
lhand -26.8263 15.9712
lfingers 7.12502
lthumb -0.252322 45.9508
rfemur -31.1297 4.64034 10.7955
rtibia 45.0156
rfoot -15.8802 -7.95368
rtoes -2.37974
lfemur -15.5765 1.27743 -11.0833
ltibia 36.3266
lfoot -22.1253 11.533
ltoes -25.1061
360
root 8.26164 17.5103 -20.1197 3.34894 4.22064 0.222879
lowerback 8.81974 0.545723 -3.78398
upperback 2.86386 0.410338 0.305447
thorax -2.00118 0.201796 2.40137
lowerneck -11.0487 0.951136 -1.60622
upperneck 6.93986 1.64902 -1.36986
head 4.28598 0.694883 -0.0556343
rclavicle -1.3418e-015 -3.47873e-015
rhumerus -29.4325 1.31153 -78.041
rradius 42.1238
rwrist -1.48002
rhand -23.6677 46.6719
rfingers 7.12502
rthumb 2.7983 16.7105
lclavicle -1.3418e-015 -3.47873e-015
lhumerus -29.4548 4.57004 79.7055
lradius 39.5291
lwrist 11.1564
lhand -27.864 12.7985
lfingers 7.12502
lthumb -1.25457 42.7746
rfemur -30.7773 4.62458 10.2322
rtibia 45.4346
rfoot -16.465 -8.83147
rtoes 1.6403
lfemur -15.7216 1.11202 -11.1132
ltibia 36.1631
lfoot -21.8553 11.5559
ltoes -25.1126
361
root 8.21863 17.5298 -20.155 3.30887 4.30162 0.266955
lowerback 8.60021 0.595431 -3.78373
upperback 2.96594 0.487494 0.296665
thorax -1.77946 0.234643 2.38535
lowerneck -11.6227 0.836413 -1.87178
upperneck 7.97266 1.53875 -1.1009
head 4.27512 0.633436 0.0706325
rclavicle -6.80837e-015 2.98177e-015
rhumerus -29.1877 1.40058 -77.9774
rradius 42.143
rwrist -1.39878
rhand -24.1948 45.6812
rfingers 7.12502
rthumb 2.28919 15.7137
lclavicle -6.80837e-015 2.98177e-015
lhumerus -29.7893 4.46586 79.5494
lradius 40.0291
lwrist 11.3556
lhand -27.76 11.9091
lfingers 7.12502
lthumb -1.15413 41.8857
rfemur -30.4007 4.78475 9.75557
rtibia 45.8702
rfoot -16.9495 -9.66801
rtoes 9.62513
lfemur -15.6866 1.00675 -11.0375
ltibia 35.935
lfoot -21.621 11.6429
ltoes -25.2455
362
root 8.17478 17.532 -20.1961 3.31958 4.41087 0.150877
lowerback 8.34786 0.759256 -3.51419
upperback 2.5749 0.728624 0.249936
thorax -2.05841 0.365436 2.16089
lowerneck -10.1509 0.646676 -2.11645
upperneck 7.71841 1.24108 -0.694749
head 4.37811 0.508515 0.231847
rclavicle -4.4975e-015 -5.36719e-015
rhumerus -30.3162 1.11007 -77.8692
rradius 42.5393
rwrist -1.31981
rhand -24.3794 44.8307
rfingers 7.12502
rthumb 2.11093 14.8614
lclavicle -4.4975e-015 -5.36719e-015
lhumerus -30.8857 3.90032 79.432
lradius 40.2182
lwrist 11.7093
lhand -27.4815 9.98418
lfingers 7.12502
lthumb -0.885144 39.9621
rfemur -30.0158 4.88449 9.5178
rtibia 46.3015
rfoot -17.2454 -10.5503
rtoes 14.6563
lfemur -15.7743 0.83819 -10.7796
ltibia 35.7277
lfoot -21.3794 11.8113
ltoes -25.8594
363
root 8.12234 17.5265 -20.2407 3.33076 4.64021 0.127232
lowerback 8.32255 0.948406 -3.52682
upperback 2.63308 0.980252 0.227135
thorax -1.99995 0.489068 2.11954
lowerneck -10.7038 0.482594 -2.03569
upperneck 8.42203 1.00852 -0.488408
head 4.25998 0.401554 0.246937
rclavicle 3.05383e-014 -9.0447e-015
rhumerus -30.3129 0.356546 -77.6981
rradius 42.6493
rwrist -1.38815
rhand -24.2376 44.4085
rfingers 7.12502
rthumb 2.24793 14.4406
lclavicle 3.05383e-014 -9.0447e-015
lhumerus -30.4484 4.06404 79.4739
lradius 40.1886
lwrist 10.8518
lhand -27.1803 11.6143
lfingers 7.12502
lthumb -0.594248 41.5933
rfemur -29.4745 4.95954 9.21549
rtibia 46.7069
rfoot -17.9232 -11.1499
rtoes 17.1054
lfemur -15.9828 0.518759 -10.5694
ltibia 35.6648
lfoot -21.2135 11.8688
ltoes -25.7211
364
root 8.06751 17.5202 -20.2768 3.32944 4.79589 0.101297
lowerback 8.21607 1.01306 -3.56505
upperback 2.76681 1.07083 0.265191
thorax -1.80965 0.529153 2.17378
lowerneck -11.2314 0.45573 -1.76372
upperneck 8.46857 0.96206 -0.659137
head 4.36344 0.37561 0.149065
rclavicle 4.37326e-015 -1.25234e-014
rhumerus -30.1009 0.162992 -77.6096
rradius 42.8094
rwrist -1.73935
rhand -24.1499 44.4029
rfingers 7.12502
rthumb 2.3326 14.436
lclavicle 4.37326e-015 -1.25234e-014
lhumerus -30.0819 4.80018 79.4114
lradius 40.1928
lwrist 9.87991
lhand -26.6722 13.0203
lfingers 7.12502
lthumb -0.103453 43
rfemur -28.8388 4.97125 8.9453
rtibia 47.0846
rfoot -18.4784 -11.549
rtoes 16.8818
lfemur -16.2239 0.32478 -10.3433
ltibia 35.7579
lfoot -21.0471 11.9651
ltoes -25.9065
365
root 8.01442 17.5087 -20.3081 3.24771 4.92161 0.166192
lowerback 8.06651 0.916101 -3.50791
upperback 2.64406 0.950347 0.260063
thorax -1.84527 0.471486 2.14908
lowerneck -11.0006 0.507346 -2.2887
upperneck 8.79527 1.06127 -0.197726
head 4.42016 0.432079 0.383125
rclavicle 1.77912e-014 5.06901e-015
rhumerus -30.5685 0.590303 -77.6402
rradius 43.2201
rwrist -2.04642
rhand -24.1227 44.1091
rfingers 7.12502
rthumb 2.35882 14.1424
lclavicle 1.77912e-014 5.06901e-015
lhumerus -30.7322 5.44022 79.1201
lradius 40.384
lwrist 9.79861
lhand -26.7402 12.8065
lfingers 7.12502
lthumb -0.169152 42.7861
rfemur -28.113 4.85397 8.63678
rtibia 47.4277
rfoot -18.056 -11.9376
rtoes 14.1271
lfemur -16.3681 0.243585 -10.2202
ltibia 35.888
lfoot -20.8969 11.9889
ltoes -26.2692
366
root 7.95951 17.494 -20.3455 3.18165 5.14491 0.274669
lowerback 8.06318 0.891502 -3.40324
upperback 2.55422 0.922223 0.16297
thorax -1.93164 0.460339 1.99196
lowerneck -10.5232 0.328591 -2.69832
upperneck 8.58599 0.83135 0.138898
head 4.27644 0.328086 0.535073
rclavicle -1.99282e-014 -1.02374e-014
rhumerus -30.7302 0.410374 -77.6184
rradius 43.2522
rwrist -2.05452
rhand -24.2238 43.6214
rfingers 7.12502
rthumb 2.26121 13.6537
lclavicle -1.99282e-014 -1.02374e-014
lhumerus -31.1649 5.54792 78.8926
lradius 40.5697
lwrist 10.1082
lhand -26.787 14.159
lfingers 7.12502
lthumb -0.214358 44.1387
rfemur -27.3838 4.78471 8.24034
rtibia 47.7093
rfoot -17.8789 -11.784
rtoes 13.9198
lfemur -16.5555 0.0944198 -10.1283
ltibia 35.9922
lfoot -20.6366 11.9675
ltoes -26.8664
